<svg width="756" height="405" viewBox="0 0 756 405" class="keymap" xmlns="http://www.w3.org/2000/svg" xmlns:xlink="http://www.w3.org/1999/xlink">
<style>/* inherit to force styles through use tags */
svg path {
    fill: inherit;
}

/* font and background color specifications */
svg.keymap {
    font-family: SFMono-Regular,Consolas,Liberation Mono,Menlo,monospace;
    font-size: 14px;
    font-kerning: normal;
    text-rendering: optimizeLegibility;
    fill: #24292e;
}

/* default key styling */
rect.key {
    fill: #f6f8fa;
}

rect.key, rect.combo {
    stroke: #c9cccf;
    stroke-width: 1;
}

/* default key side styling, only used is draw_key_sides is set */
rect.side {
    filter: brightness(90%);
}

/* color accent for combo boxes */
rect.combo, rect.combo-separate {
    fill: #cdf;
}

/* color accent for held keys */
rect.held, rect.combo.held {
    fill: #fdd;
}

/* color accent for ghost (optional) keys */
rect.ghost, rect.combo.ghost {
    stroke-dasharray: 4, 4;
    stroke-width: 2;
}

text {
    text-anchor: middle;
    dominant-baseline: middle;
}

/* styling for layer labels */
text.label {
    font-weight: bold;
    text-anchor: start;
    stroke: white;
    stroke-width: 4;
    paint-order: stroke;
}

/* styling for optional footer */
text.footer {
    text-anchor: end;
    dominant-baseline: auto;
    stroke: white;
    stroke-width: 4;
    paint-order: stroke;
}

/* styling for combo tap, and key non-tap label text */
text.combo, text.hold, text.shifted, text.left, text.right, text.tl, text.tr, text.bl, text.br {
    font-size: 11px;
}

text.hold, text.bl, text.br {
    text-anchor: middle;
    dominant-baseline: auto;
}

text.shifted, text.tl, text.tr {
    text-anchor: middle;
    dominant-baseline: hanging;
}

text.left, text.tl, text.bl {
    text-anchor: start;
}

text.right, text.tr, text.br {
    text-anchor: end;
}

text.layer-activator {
    text-decoration: underline;
}

/* styling for hold/shifted label text in combo box */
text.combo.hold, text.combo.shifted, text.combo.left, text.combo.right {
    font-size: 8px;
}

/* lighter symbol for transparent keys */
text.trans {
    fill: #7b7e81;
}

/* styling for combo dendrons */
path.combo {
    stroke-width: 1;
    stroke: gray;
    fill: none;
}

/* Start Tabler Icons Cleanup */
/* cannot use height/width with glyphs */
.icon-tabler > path {
    fill: inherit;
    stroke: inherit;
    stroke-width: 2;
}
/* hide tabler's default box */
.icon-tabler > path[stroke="none"][fill="none"] {
    visibility: hidden;
}
/* End Tabler Icons Cleanup */

svg.keymap {
  font-family: Inter, "Segoe UI", Arial, sans-serif;
  font-size: 14px;
  letter-spacing: 0;
}
text.combo,
text.hold,
text.shifted,
text.left,
text.right,
text.tl,
text.tr,
text.bl,
text.br {
  font-size: 10.5px;
}
text.label {
  font-size: 16px;
}
</style>
<g transform="translate(30, 0)" class="layer-FUNC">
<text x="0" y="28" class="label" id="FUNC">FUNC:</text>
<g transform="translate(0, 56)">
<g transform="translate(29, 84)" class="key keypos-0">
<rect rx="6" ry="6" x="-27" y="-27" width="54" height="54" class="key"/>
<text x="0" y="0" class="key tap">F1</text>
</g>
<g transform="translate(87, 48)" class="key keypos-1">
<rect rx="6" ry="6" x="-27" y="-27" width="54" height="54" class="key"/>
<text x="0" y="0" class="key tap">F2</text>
</g>
<g transform="translate(145, 29)" class="key keypos-2">
<rect rx="6" ry="6" x="-27" y="-27" width="54" height="54" class="key"/>
<text x="0" y="0" class="key tap">F3</text>
</g>
<g transform="translate(203, 45)" class="key keypos-3">
<rect rx="6" ry="6" x="-27" y="-27" width="54" height="54" class="key"/>
<text x="0" y="0" class="key tap">F4</text>
</g>
<g transform="translate(261, 53)" class="key keypos-4">
<rect rx="6" ry="6" x="-27" y="-27" width="54" height="54" class="key"/>
<text x="0" y="0" class="key tap">BT</text>
<text x="0" y="25" class="key hold">0</text>
</g>
<g transform="translate(435, 53)" class="key keypos-5">
<rect rx="6" ry="6" x="-27" y="-27" width="54" height="54" class="key"/>
<text x="0" y="0" class="key tap">BT</text>
<text x="0" y="25" class="key hold">2</text>
</g>
<g transform="translate(493, 45)" class="key keypos-6">
<rect rx="6" ry="6" x="-27" y="-27" width="54" height="54" class="key"/>
<text x="0" y="0" class="key tap">
<tspan x="0" dy="-0.53em">OUT</tspan><tspan x="0" dy="1.05em">TOG</tspan>
</text>
</g>
<g transform="translate(551, 29)" class="key keypos-7">
<rect rx="6" ry="6" x="-27" y="-27" width="54" height="54" class="key"/>
<text x="0" y="0" class="key tap">WIN</text>
<text x="0" y="25" class="key hold">toggle</text>
</g>
<g transform="translate(609, 48)" class="key keypos-8">
<rect rx="6" ry="6" x="-27" y="-27" width="54" height="54" class="key"/>
<text x="0" y="0" class="key tap">MUTE</text>
</g>
<g transform="translate(667, 84)" class="key keypos-9">
<rect rx="6" ry="6" x="-27" y="-27" width="54" height="54" class="key"/>
<text x="0" y="0" class="key tap">PREV</text>
</g>
<g transform="translate(29, 142)" class="key keypos-10">
<rect rx="6" ry="6" x="-27" y="-27" width="54" height="54" class="key"/>
<text x="0" y="0" class="key tap">F5</text>
</g>
<g transform="translate(87, 106)" class="key keypos-11">
<rect rx="6" ry="6" x="-27" y="-27" width="54" height="54" class="key"/>
<text x="0" y="0" class="key tap">F6</text>
</g>
<g transform="translate(145, 87)" class="key keypos-12">
<rect rx="6" ry="6" x="-27" y="-27" width="54" height="54" class="key"/>
<text x="0" y="0" class="key tap">F7</text>
</g>
<g transform="translate(203, 104)" class="key keypos-13">
<rect rx="6" ry="6" x="-27" y="-27" width="54" height="54" class="key"/>
<text x="0" y="0" class="key tap">F8</text>
</g>
<g transform="translate(261, 111)" class="key keypos-14">
<rect rx="6" ry="6" x="-27" y="-27" width="54" height="54" class="key"/>
<text x="0" y="0" class="key tap">BT</text>
<text x="0" y="25" class="key hold">1</text>
</g>
<g transform="translate(435, 111)" class="key keypos-15">
<rect rx="6" ry="6" x="-27" y="-27" width="54" height="54" class="key"/>
<text x="0" y="0" class="key tap">BT</text>
<text x="0" y="25" class="key hold">3</text>
</g>
<g transform="translate(493, 104)" class="key keypos-16">
<rect rx="6" ry="6" x="-27" y="-27" width="54" height="54" class="key"/>
<text x="0" y="0" class="key tap">
<tspan x="0" dy="-0.53em">BRI</tspan><tspan x="0" dy="1.05em">UP</tspan>
</text>
</g>
<g transform="translate(551, 87)" class="key keypos-17">
<rect rx="6" ry="6" x="-27" y="-27" width="54" height="54" class="key"/>
<text x="0" y="0" class="key tap">Studio</text>
</g>
<g transform="translate(609, 106)" class="key keypos-18">
<rect rx="6" ry="6" x="-27" y="-27" width="54" height="54" class="key"/>
<text x="0" y="0" class="key tap">
<tspan x="0" dy="-0.53em">VOL</tspan><tspan x="0" dy="1.05em">UP</tspan>
</text>
</g>
<g transform="translate(667, 142)" class="key keypos-19">
<rect rx="6" ry="6" x="-27" y="-27" width="54" height="54" class="key"/>
<text x="0" y="0" class="key tap">PP</text>
</g>
<g transform="translate(29, 200)" class="key keypos-20">
<rect rx="6" ry="6" x="-27" y="-27" width="54" height="54" class="key"/>
<text x="0" y="0" class="key tap">F9</text>
</g>
<g transform="translate(87, 163)" class="key keypos-21">
<rect rx="6" ry="6" x="-27" y="-27" width="54" height="54" class="key"/>
<text x="0" y="0" class="key tap">F10</text>
</g>
<g transform="translate(145, 145)" class="key keypos-22">
<rect rx="6" ry="6" x="-27" y="-27" width="54" height="54" class="key"/>
<text x="0" y="0" class="key tap">F11</text>
</g>
<g transform="translate(203, 162)" class="key keypos-23">
<rect rx="6" ry="6" x="-27" y="-27" width="54" height="54" class="key"/>
<text x="0" y="0" class="key tap">F12</text>
</g>
<g transform="translate(261, 169)" class="key keypos-24">
<rect rx="6" ry="6" x="-27" y="-27" width="54" height="54" class="key"/>
<text x="0" y="0" class="key tap">
<tspan x="0" dy="-0.53em">BT</tspan><tspan x="0" dy="1.05em">CLR</tspan>
</text>
</g>
<g transform="translate(435, 169)" class="key keypos-25">
<rect rx="6" ry="6" x="-27" y="-27" width="54" height="54" class="key"/>
<text x="0" y="0" class="key tap">BT</text>
<text x="0" y="25" class="key hold">4</text>
</g>
<g transform="translate(493, 162)" class="key keypos-26">
<rect rx="6" ry="6" x="-27" y="-27" width="54" height="54" class="key"/>
<text x="0" y="0" class="key tap">
<tspan x="0" dy="-0.53em">BRI</tspan><tspan x="0" dy="1.05em">DEC</tspan>
</text>
</g>
<g transform="translate(551, 145)" class="key keypos-27">
<rect rx="6" ry="6" x="-27" y="-27" width="54" height="54" class="key"/>
<text x="0" y="0" class="key tap">Off</text>
</g>
<g transform="translate(609, 163)" class="key keypos-28">
<rect rx="6" ry="6" x="-27" y="-27" width="54" height="54" class="key"/>
<text x="0" y="0" class="key tap">
<tspan x="0" dy="-0.53em">VOL</tspan><tspan x="0" dy="1.05em">DN</tspan>
</text>
</g>
<g transform="translate(667, 200)" class="key keypos-29">
<rect rx="6" ry="6" x="-27" y="-27" width="54" height="54" class="key"/>
<text x="0" y="0" class="key tap">NEXT</text>
</g>
<g transform="translate(229, 228) rotate(15.0)" class="key held keypos-30">
<rect rx="6" ry="6" x="-27" y="-27" width="54" height="54" class="key held"/>
</g>
<g transform="translate(289, 253) rotate(30.0)" class="key trans keypos-31">
<rect rx="6" ry="6" x="-27" y="-27" width="54" height="54" class="key trans"/>
</g>
<g transform="translate(407, 253) rotate(-30.0)" class="key trans keypos-32">
<rect rx="6" ry="6" x="-27" y="-27" width="54" height="54" class="key trans"/>
</g>
<g transform="translate(467, 228) rotate(-15.0)" class="key held keypos-33">
<rect rx="6" ry="6" x="-27" y="-27" width="54" height="54" class="key held"/>
</g>
</g>
</g>
</svg>
