<svg width="780" height="415" viewBox="0 0 780 415" class="keymap" xmlns="http://www.w3.org/2000/svg" xmlns:xlink="http://www.w3.org/1999/xlink">
<style>/* inherit to force styles through use tags */
svg path {
    fill: inherit;
}

/* font and background color specifications */
svg.keymap {
    font-family: SFMono-Regular,Consolas,Liberation Mono,Menlo,monospace;
    font-size: 14px;
    font-kerning: normal;
    text-rendering: optimizeLegibility;
    fill: #24292e;
}

/* default key styling */
rect.key {
    fill: #f6f8fa;
}

rect.key, rect.combo {
    stroke: #c9cccf;
    stroke-width: 1;
}

/* default key side styling, only used is draw_key_sides is set */
rect.side {
    filter: brightness(90%);
}

/* color accent for combo boxes */
rect.combo, rect.combo-separate {
    fill: #cdf;
}

/* color accent for held keys */
rect.held, rect.combo.held {
    fill: #fdd;
}

/* color accent for ghost (optional) keys */
rect.ghost, rect.combo.ghost {
    stroke-dasharray: 4, 4;
    stroke-width: 2;
}

text {
    text-anchor: middle;
    dominant-baseline: middle;
}

/* styling for layer labels */
text.label {
    font-weight: bold;
    text-anchor: start;
    stroke: white;
    stroke-width: 4;
    paint-order: stroke;
}

/* styling for optional footer */
text.footer {
    text-anchor: end;
    dominant-baseline: auto;
    stroke: white;
    stroke-width: 4;
    paint-order: stroke;
}

/* styling for combo tap, and key non-tap label text */
text.combo, text.hold, text.shifted, text.left, text.right, text.tl, text.tr, text.bl, text.br {
    font-size: 11px;
}

text.hold, text.bl, text.br {
    text-anchor: middle;
    dominant-baseline: auto;
}

text.shifted, text.tl, text.tr {
    text-anchor: middle;
    dominant-baseline: hanging;
}

text.left, text.tl, text.bl {
    text-anchor: start;
}

text.right, text.tr, text.br {
    text-anchor: end;
}

text.layer-activator {
    text-decoration: underline;
}

/* styling for hold/shifted label text in combo box */
text.combo.hold, text.combo.shifted, text.combo.left, text.combo.right {
    font-size: 8px;
}

/* lighter symbol for transparent keys */
text.trans {
    fill: #7b7e81;
}

/* styling for combo dendrons */
path.combo {
    stroke-width: 1;
    stroke: gray;
    fill: none;
}

/* Start Tabler Icons Cleanup */
/* cannot use height/width with glyphs */
.icon-tabler > path {
    fill: inherit;
    stroke: inherit;
    stroke-width: 2;
}
/* hide tabler's default box */
.icon-tabler > path[stroke="none"][fill="none"] {
    visibility: hidden;
}
/* End Tabler Icons Cleanup */

@media (prefers-color-scheme: dark) {
svg.keymap { fill: #d1d6db; }
rect.key { fill: #3f4750; }
rect.key, rect.combo { stroke: #60666c; }
rect.combo, rect.combo-separate { fill: #1f3d7a; }
rect.held, rect.combo.held { fill: #854747; }
text.label, text.footer { stroke: black; }
text.trans { fill: #7e8184; }
path.combo { stroke: #7f7f7f; }

}

svg.keymap { background-color: #FFF; }</style>
<g transform="translate(30, 0)" class="layer-DEFAULT">
<text x="0" y="28" class="label" id="DEFAULT">DEFAULT:</text>
<g transform="translate(0, 56)">
<g transform="translate(30, 87)" class="key keypos-0">
<rect rx="6" ry="6" x="-28" y="-28" width="56" height="56" class="key"/>
<text x="0" y="0" class="key tap">Q</text>
</g>
<g transform="translate(90, 49)" class="key keypos-1">
<rect rx="6" ry="6" x="-28" y="-28" width="56" height="56" class="key"/>
<text x="0" y="0" class="key tap">W</text>
</g>
<g transform="translate(150, 30)" class="key keypos-2">
<rect rx="6" ry="6" x="-28" y="-28" width="56" height="56" class="key"/>
<text x="0" y="0" class="key tap">E</text>
</g>
<g transform="translate(210, 47)" class="key keypos-3">
<rect rx="6" ry="6" x="-28" y="-28" width="56" height="56" class="key"/>
<text x="0" y="0" class="key tap">R</text>
</g>
<g transform="translate(270, 55)" class="key keypos-4">
<rect rx="6" ry="6" x="-28" y="-28" width="56" height="56" class="key"/>
<text x="0" y="0" class="key tap">T</text>
</g>
<g transform="translate(450, 55)" class="key keypos-5">
<rect rx="6" ry="6" x="-28" y="-28" width="56" height="56" class="key"/>
<text x="0" y="0" class="key tap">Y</text>
</g>
<g transform="translate(510, 47)" class="key keypos-6">
<rect rx="6" ry="6" x="-28" y="-28" width="56" height="56" class="key"/>
<text x="0" y="0" class="key tap">U</text>
</g>
<g transform="translate(570, 30)" class="key keypos-7">
<rect rx="6" ry="6" x="-28" y="-28" width="56" height="56" class="key"/>
<text x="0" y="0" class="key tap">I</text>
</g>
<g transform="translate(630, 49)" class="key keypos-8">
<rect rx="6" ry="6" x="-28" y="-28" width="56" height="56" class="key"/>
<text x="0" y="0" class="key tap">O</text>
</g>
<g transform="translate(690, 87)" class="key keypos-9">
<rect rx="6" ry="6" x="-28" y="-28" width="56" height="56" class="key"/>
<text x="0" y="0" class="key tap">P</text>
</g>
<g transform="translate(30, 147)" class="key keypos-10">
<rect rx="6" ry="6" x="-28" y="-28" width="56" height="56" class="key"/>
<text x="0" y="0" class="key tap">A</text>
</g>
<g transform="translate(90, 109)" class="key keypos-11">
<rect rx="6" ry="6" x="-28" y="-28" width="56" height="56" class="key"/>
<text x="0" y="0" class="key tap">S</text>
<text x="0" y="26" class="key hold">LALT</text>
</g>
<g transform="translate(150, 90)" class="key keypos-12">
<rect rx="6" ry="6" x="-28" y="-28" width="56" height="56" class="key"/>
<text x="0" y="0" class="key tap">D</text>
<text x="0" y="26" class="key hold">LCTRL</text>
</g>
<g transform="translate(210, 107)" class="key keypos-13">
<rect rx="6" ry="6" x="-28" y="-28" width="56" height="56" class="key"/>
<text x="0" y="0" class="key tap">F</text>
<text x="0" y="26" class="key hold">LGUI</text>
</g>
<g transform="translate(270, 115)" class="key keypos-14">
<rect rx="6" ry="6" x="-28" y="-28" width="56" height="56" class="key"/>
<text x="0" y="0" class="key tap">G</text>
</g>
<g transform="translate(450, 115)" class="key keypos-15">
<rect rx="6" ry="6" x="-28" y="-28" width="56" height="56" class="key"/>
<text x="0" y="0" class="key tap">H</text>
</g>
<g transform="translate(510, 107)" class="key keypos-16">
<rect rx="6" ry="6" x="-28" y="-28" width="56" height="56" class="key"/>
<text x="0" y="0" class="key tap">J</text>
<text x="0" y="26" class="key hold">RGUI</text>
</g>
<g transform="translate(570, 90)" class="key keypos-17">
<rect rx="6" ry="6" x="-28" y="-28" width="56" height="56" class="key"/>
<text x="0" y="0" class="key tap">K</text>
<text x="0" y="26" class="key hold">RCTRL</text>
</g>
<g transform="translate(630, 109)" class="key keypos-18">
<rect rx="6" ry="6" x="-28" y="-28" width="56" height="56" class="key"/>
<text x="0" y="0" class="key tap">L</text>
<text x="0" y="26" class="key hold">RALT</text>
</g>
<g transform="translate(690, 147)" class="key keypos-19">
<rect rx="6" ry="6" x="-28" y="-28" width="56" height="56" class="key"/>
<text x="0" y="0" class="key tap">BSPC</text>
</g>
<g transform="translate(30, 207)" class="key keypos-20">
<rect rx="6" ry="6" x="-28" y="-28" width="56" height="56" class="key"/>
<text x="0" y="0" class="key tap">Z</text>
</g>
<g transform="translate(90, 169)" class="key keypos-21">
<rect rx="6" ry="6" x="-28" y="-28" width="56" height="56" class="key"/>
<text x="0" y="0" class="key tap">X</text>
</g>
<g transform="translate(150, 150)" class="key keypos-22">
<rect rx="6" ry="6" x="-28" y="-28" width="56" height="56" class="key"/>
<text x="0" y="0" class="key tap">C</text>
</g>
<g transform="translate(210, 167)" class="key keypos-23">
<rect rx="6" ry="6" x="-28" y="-28" width="56" height="56" class="key"/>
<text x="0" y="0" class="key tap">V</text>
</g>
<g transform="translate(270, 175)" class="key keypos-24">
<rect rx="6" ry="6" x="-28" y="-28" width="56" height="56" class="key"/>
<text x="0" y="0" class="key tap">B</text>
</g>
<g transform="translate(450, 175)" class="key keypos-25">
<rect rx="6" ry="6" x="-28" y="-28" width="56" height="56" class="key"/>
<text x="0" y="0" class="key tap">N</text>
</g>
<g transform="translate(510, 167)" class="key keypos-26">
<rect rx="6" ry="6" x="-28" y="-28" width="56" height="56" class="key"/>
<text x="0" y="0" class="key tap">M</text>
</g>
<g transform="translate(570, 150)" class="key keypos-27">
<rect rx="6" ry="6" x="-28" y="-28" width="56" height="56" class="key"/>
<text x="0" y="0" class="key tap">,</text>
</g>
<g transform="translate(630, 169)" class="key keypos-28">
<rect rx="6" ry="6" x="-28" y="-28" width="56" height="56" class="key"/>
<text x="0" y="0" class="key tap">.</text>
</g>
<g transform="translate(690, 207)" class="key keypos-29">
<rect rx="6" ry="6" x="-28" y="-28" width="56" height="56" class="key"/>
<text x="0" y="0" class="key tap">ENTER</text>
</g>
<g transform="translate(237, 236) rotate(15.0)" class="key keypos-30">
<rect rx="6" ry="6" x="-28" y="-28" width="56" height="56" class="key"/>
<text x="0" y="0" class="key tap">TAB</text>
<text x="0" y="26" class="key hold">SYMBOL</text>
</g>
<g transform="translate(299, 262) rotate(30.0)" class="key keypos-31">
<rect rx="6" ry="6" x="-28" y="-28" width="56" height="56" class="key"/>
<text x="0" y="0" class="key tap">LSHIFT</text>
</g>
<g transform="translate(421, 262) rotate(-30.0)" class="key keypos-32">
<rect rx="6" ry="6" x="-28" y="-28" width="56" height="56" class="key"/>
<text x="0" y="0" class="key tap">SPACE</text>
</g>
<g transform="translate(483, 236) rotate(-15.0)" class="key keypos-33">
<rect rx="6" ry="6" x="-28" y="-28" width="56" height="56" class="key"/>
<text x="0" y="0" class="key tap">TAB</text>
<text x="0" y="26" class="key hold"><tspan style="font-size: 64%">NUM &amp; NAVI…</tspan></text>
</g>
</g>
</g>
<text x="750.0" y="387.0" class="footer">Created with <a href="https://github.com/caksoylar/keymap-drawer">keymap-drawer</a></text></svg>
