<svg width="756" height="405" viewBox="0 0 756 405" class="keymap" xmlns="http://www.w3.org/2000/svg" xmlns:xlink="http://www.w3.org/1999/xlink">
<style>/* inherit to force styles through use tags */
svg path {
    fill: inherit;
}

/* font and background color specifications */
svg.keymap {
    font-family: SFMono-Regular,Consolas,Liberation Mono,Menlo,monospace;
    font-size: 14px;
    font-kerning: normal;
    text-rendering: optimizeLegibility;
    fill: #24292e;
}

/* default key styling */
rect.key {
    fill: #f6f8fa;
}

rect.key, rect.combo {
    stroke: #c9cccf;
    stroke-width: 1;
}

/* default key side styling, only used is draw_key_sides is set */
rect.side {
    filter: brightness(90%);
}

/* color accent for combo boxes */
rect.combo, rect.combo-separate {
    fill: #cdf;
}

/* color accent for held keys */
rect.held, rect.combo.held {
    fill: #fdd;
}

/* color accent for ghost (optional) keys */
rect.ghost, rect.combo.ghost {
    stroke-dasharray: 4, 4;
    stroke-width: 2;
}

text {
    text-anchor: middle;
    dominant-baseline: middle;
}

/* styling for layer labels */
text.label {
    font-weight: bold;
    text-anchor: start;
    stroke: white;
    stroke-width: 4;
    paint-order: stroke;
}

/* styling for optional footer */
text.footer {
    text-anchor: end;
    dominant-baseline: auto;
    stroke: white;
    stroke-width: 4;
    paint-order: stroke;
}

/* styling for combo tap, and key non-tap label text */
text.combo, text.hold, text.shifted, text.left, text.right, text.tl, text.tr, text.bl, text.br {
    font-size: 11px;
}

text.hold, text.bl, text.br {
    text-anchor: middle;
    dominant-baseline: auto;
}

text.shifted, text.tl, text.tr {
    text-anchor: middle;
    dominant-baseline: hanging;
}

text.left, text.tl, text.bl {
    text-anchor: start;
}

text.right, text.tr, text.br {
    text-anchor: end;
}

text.layer-activator {
    text-decoration: underline;
}

/* styling for hold/shifted label text in combo box */
text.combo.hold, text.combo.shifted, text.combo.left, text.combo.right {
    font-size: 8px;
}

/* lighter symbol for transparent keys */
text.trans {
    fill: #7b7e81;
}

/* styling for combo dendrons */
path.combo {
    stroke-width: 1;
    stroke: gray;
    fill: none;
}

/* Start Tabler Icons Cleanup */
/* cannot use height/width with glyphs */
.icon-tabler > path {
    fill: inherit;
    stroke: inherit;
    stroke-width: 2;
}
/* hide tabler's default box */
.icon-tabler > path[stroke="none"][fill="none"] {
    visibility: hidden;
}
/* End Tabler Icons Cleanup */

svg.keymap {
  font-family: Inter, "Segoe UI", Arial, sans-serif;
  font-size: 14px;
  letter-spacing: 0;
}
text.combo,
text.hold,
text.shifted,
text.left,
text.right,
text.tl,
text.tr,
text.bl,
text.br {
  font-size: 10.5px;
}
text.label {
  font-size: 16px;
}
</style>
<g transform="translate(30, 0)" class="layer-MOUSE">
<text x="0" y="28" class="label" id="MOUSE">MOUSE:</text>
<g transform="translate(0, 56)">
<g transform="translate(29, 84)" class="key keypos-0">
<rect rx="6" ry="6" x="-27" y="-27" width="54" height="54" class="key"/>
<a href="#MOUSE">
<text x="0" y="0" class="key tap layer-activator">MOUSE</text>
</a><text x="0" y="25" class="key hold">toggle</text>
</g>
<g transform="translate(87, 48)" class="key keypos-1">
<rect rx="6" ry="6" x="-27" y="-27" width="54" height="54" class="key"/>
<text x="0" y="0" class="key tap">M4</text>
</g>
<g transform="translate(145, 29)" class="key keypos-2">
<rect rx="6" ry="6" x="-27" y="-27" width="54" height="54" class="key"/>
<text x="0" y="0" class="key tap">
<tspan x="0" dy="-0.53em">M</tspan><tspan x="0" dy="1.05em">Click</tspan>
</text>
</g>
<g transform="translate(203, 45)" class="key keypos-3">
<rect rx="6" ry="6" x="-27" y="-27" width="54" height="54" class="key"/>
<text x="0" y="0" class="key tap">M5</text>
</g>
<g transform="translate(261, 53)" class="key trans keypos-4">
<rect rx="6" ry="6" x="-27" y="-27" width="54" height="54" class="key trans"/>
</g>
<g transform="translate(435, 53)" class="key keypos-5">
<rect rx="6" ry="6" x="-27" y="-27" width="54" height="54" class="key"/>
<text x="0" y="0" class="key tap">
<tspan x="0" dy="-0.53em">Scroll</tspan><tspan x="0" dy="1.05em">L</tspan>
</text>
</g>
<g transform="translate(493, 45)" class="key keypos-6">
<rect rx="6" ry="6" x="-27" y="-27" width="54" height="54" class="key"/>
<text x="0" y="0" class="key tap">
<tspan x="0" dy="-0.53em">Scroll</tspan><tspan x="0" dy="1.05em">D</tspan>
</text>
</g>
<g transform="translate(551, 29)" class="key keypos-7">
<rect rx="6" ry="6" x="-27" y="-27" width="54" height="54" class="key"/>
<text x="0" y="0" class="key tap">
<tspan x="0" dy="-0.53em">Scroll</tspan><tspan x="0" dy="1.05em">U</tspan>
</text>
</g>
<g transform="translate(609, 48)" class="key keypos-8">
<rect rx="6" ry="6" x="-27" y="-27" width="54" height="54" class="key"/>
<text x="0" y="0" class="key tap">
<tspan x="0" dy="-0.53em">Scroll</tspan><tspan x="0" dy="1.05em">R</tspan>
</text>
</g>
<g transform="translate(667, 84)" class="key keypos-9">
<rect rx="6" ry="6" x="-27" y="-27" width="54" height="54" class="key"/>
<a href="#MOUSE">
<text x="0" y="0" class="key tap layer-activator">MOUSE</text>
</a><text x="0" y="25" class="key hold">toggle</text>
</g>
<g transform="translate(29, 142)" class="key trans keypos-10">
<rect rx="6" ry="6" x="-27" y="-27" width="54" height="54" class="key trans"/>
</g>
<g transform="translate(87, 106)" class="key trans keypos-11">
<rect rx="6" ry="6" x="-27" y="-27" width="54" height="54" class="key trans"/>
</g>
<g transform="translate(145, 87)" class="key trans keypos-12">
<rect rx="6" ry="6" x="-27" y="-27" width="54" height="54" class="key trans"/>
</g>
<g transform="translate(203, 104)" class="key trans keypos-13">
<rect rx="6" ry="6" x="-27" y="-27" width="54" height="54" class="key trans"/>
</g>
<g transform="translate(261, 111)" class="key trans keypos-14">
<rect rx="6" ry="6" x="-27" y="-27" width="54" height="54" class="key trans"/>
</g>
<g transform="translate(435, 111)" class="key keypos-15">
<rect rx="6" ry="6" x="-27" y="-27" width="54" height="54" class="key"/>
<text x="0" y="0" class="key tap">
<tspan x="0" dy="-0.53em">Move</tspan><tspan x="0" dy="1.05em">L</tspan>
</text>
</g>
<g transform="translate(493, 104)" class="key keypos-16">
<rect rx="6" ry="6" x="-27" y="-27" width="54" height="54" class="key"/>
<text x="0" y="0" class="key tap">
<tspan x="0" dy="-0.53em">Move</tspan><tspan x="0" dy="1.05em">D</tspan>
</text>
</g>
<g transform="translate(551, 87)" class="key keypos-17">
<rect rx="6" ry="6" x="-27" y="-27" width="54" height="54" class="key"/>
<text x="0" y="0" class="key tap">
<tspan x="0" dy="-0.53em">Move</tspan><tspan x="0" dy="1.05em">U</tspan>
</text>
</g>
<g transform="translate(609, 106)" class="key keypos-18">
<rect rx="6" ry="6" x="-27" y="-27" width="54" height="54" class="key"/>
<text x="0" y="0" class="key tap">
<tspan x="0" dy="-0.53em">Move</tspan><tspan x="0" dy="1.05em">R</tspan>
</text>
</g>
<g transform="translate(667, 142)" class="key trans keypos-19">
<rect rx="6" ry="6" x="-27" y="-27" width="54" height="54" class="key trans"/>
</g>
<g transform="translate(29, 200)" class="key keypos-20">
<rect rx="6" ry="6" x="-27" y="-27" width="54" height="54" class="key"/>
<text x="0" y="0" class="key tap">Ptr</text>
<text x="0" y="25" class="key hold">Prev</text>
</g>
<g transform="translate(87, 163)" class="key keypos-21">
<rect rx="6" ry="6" x="-27" y="-27" width="54" height="54" class="key"/>
<text x="0" y="0" class="key tap">Ptr</text>
<text x="0" y="25" class="key hold">Next</text>
</g>
<g transform="translate(145, 145)" class="key keypos-22">
<rect rx="6" ry="6" x="-27" y="-27" width="54" height="54" class="key"/>
<text x="0" y="0" class="key tap">Scroll</text>
<text x="0" y="25" class="key hold">Prev</text>
</g>
<g transform="translate(203, 162)" class="key keypos-23">
<rect rx="6" ry="6" x="-27" y="-27" width="54" height="54" class="key"/>
<text x="0" y="0" class="key tap">Scroll</text>
<text x="0" y="25" class="key hold">Next</text>
</g>
<g transform="translate(261, 169)" class="key keypos-24">
<rect rx="6" ry="6" x="-27" y="-27" width="54" height="54" class="key"/>
<text x="0" y="0" class="key tap">Mode</text>
</g>
<g transform="translate(435, 169)" class="key trans keypos-25">
<rect rx="6" ry="6" x="-27" y="-27" width="54" height="54" class="key trans"/>
</g>
<g transform="translate(493, 162)" class="key keypos-26">
<rect rx="6" ry="6" x="-27" y="-27" width="54" height="54" class="key"/>
<text x="0" y="0" class="key tap">M4</text>
</g>
<g transform="translate(551, 145)" class="key keypos-27">
<rect rx="6" ry="6" x="-27" y="-27" width="54" height="54" class="key"/>
<text x="0" y="0" class="key tap">
<tspan x="0" dy="-0.53em">M</tspan><tspan x="0" dy="1.05em">Click</tspan>
</text>
</g>
<g transform="translate(609, 163)" class="key keypos-28">
<rect rx="6" ry="6" x="-27" y="-27" width="54" height="54" class="key"/>
<text x="0" y="0" class="key tap">M5</text>
</g>
<g transform="translate(667, 200)" class="key trans keypos-29">
<rect rx="6" ry="6" x="-27" y="-27" width="54" height="54" class="key trans"/>
</g>
<g transform="translate(162, 235)" class="key keypos-30">
<rect rx="6" ry="6" x="-27" y="-27" width="54" height="54" class="key"/>
<text x="0" y="0" class="key tap">MUTE</text>
</g>
<g transform="translate(229, 228) rotate(15.0)" class="key keypos-31">
<rect rx="6" ry="6" x="-27" y="-27" width="54" height="54" class="key"/>
<text x="0" y="0" class="key tap">SPACE</text>
</g>
<g transform="translate(289, 253) rotate(30.0)" class="key keypos-32">
<rect rx="6" ry="6" x="-27" y="-27" width="54" height="54" class="key"/>
<text x="0" y="0" class="key tap">LSHIFT</text>
</g>
<g transform="translate(407, 253) rotate(-30.0)" class="key keypos-33">
<rect rx="6" ry="6" x="-27" y="-27" width="54" height="54" class="key"/>
<text x="0" y="0" class="key tap">
<tspan x="0" dy="-0.53em">L</tspan><tspan x="0" dy="1.05em">Click</tspan>
</text>
</g>
<g transform="translate(467, 228) rotate(-15.0)" class="key keypos-34">
<rect rx="6" ry="6" x="-27" y="-27" width="54" height="54" class="key"/>
<text x="0" y="0" class="key tap">
<tspan x="0" dy="-0.53em">R</tspan><tspan x="0" dy="1.05em">Click</tspan>
</text>
</g>
<g transform="translate(534, 235)" class="key keypos-35">
<rect rx="6" ry="6" x="-27" y="-27" width="54" height="54" class="key"/>
<text x="0" y="0" class="key tap">Studio</text>
</g>
<g class="combo combopos-0">
<rect rx="6" ry="6" x="160" y="24" width="28" height="26" class="combo"/>
<text x="174" y="37" class="combo tap">
<tspan x="174" dy="-0.53em">R</tspan><tspan x="174" dy="1.05em">Click</tspan>
</text>
</g>
<g class="combo combopos-1">
<rect rx="6" ry="6" x="218" y="36" width="28" height="26" class="combo"/>
<text x="232" y="49" class="combo tap">M5</text>
</g>
<g class="combo combopos-2">
<rect rx="6" ry="6" x="160" y="82" width="28" height="26" class="combo"/>
<text x="174" y="95" class="combo tap">
<tspan x="174" dy="-0.53em">L</tspan><tspan x="174" dy="1.05em">Click</tspan>
</text>
</g>
<g class="combo combopos-3">
<rect rx="6" ry="6" x="218" y="95" width="28" height="26" class="combo"/>
<text x="232" y="108" class="combo tap">M4</text>
</g>
<g class="combo combopos-4">
<rect rx="6" ry="6" x="160" y="140" width="28" height="26" class="combo"/>
<text x="174" y="153" class="combo tap">
<tspan x="174" dy="-0.53em">M</tspan><tspan x="174" dy="1.05em">Click</tspan>
</text>
</g>
</g>
</g>
</svg>
